<svg xmlns="http://www.w3.org/2000/svg" viewBox="0 0 26 26">
  <path d="M0.71875 0C0.167969 0.078125 -0.21875 0.589844 -0.140625 1.140625C-0.0625 1.691406 0.449219 2.078125 1 2L4.46875 2C5.042969 2 5.226563 2.113281 5.375 2.25C5.523438 2.386719 5.710938 2.65625 5.875 3.21875C6.210938 4.355469 10.5625 19.15625 10.5625 19.15625C10.570313 19.1875 10.582031 19.21875 10.59375 19.25C10.59375 19.25 11.703125 22 14.5 22L22.34375 22C22.703125 22.003906 23.039063 21.816406 23.222656 21.503906C23.402344 21.191406 23.402344 20.808594 23.222656 20.496094C23.039063 20.183594 22.703125 19.996094 22.34375 20L14.5 20C13.023438 20 12.4375 18.5 12.4375 18.5C12.4375 18.496094 12.292969 18.035156 12.28125 18L20.40625 18C21.4375 18 21.902344 17.136719 22 16.8125L25.59375 9.09375C26.148438 7.757813 25.859375 6 23.8125 6L9.3125 6C9.144531 6 8.960938 6.042969 8.78125 6.09375C8.421875 4.871094 7.855469 2.902344 7.78125 2.65625C7.570313 1.941406 7.292969 1.269531 6.71875 0.75C6.144531 0.230469 5.351563 0 4.46875 0L1 0C0.96875 0 0.9375 0 0.90625 0C0.875 0 0.84375 0 0.8125 0C0.78125 0 0.75 0 0.71875 0 Z M 9.625 8.0625L13.84375 8.0625L13.84375 9.84375L10.1875 9.84375L9.71875 8.34375C9.6875 8.234375 9.636719 8.136719 9.625 8.0625 Z M 15.15625 8.0625L17.84375 8.0625L17.84375 9.84375L15.15625 9.84375 Z M 19.15625 8.0625L23.78125 8.0625C23.769531 8.132813 23.75 8.195313 23.71875 8.28125L23 9.84375L19.15625 9.84375 Z M 10.59375 11.15625L13.84375 11.15625L13.84375 12.84375L11.125 12.84375 Z M 15.15625 11.15625L17.84375 11.15625L17.84375 12.84375L15.15625 12.84375 Z M 19.15625 11.15625L22.375 11.15625L21.59375 12.84375L19.15625 12.84375 Z M 11.53125 14.15625L13.84375 14.15625L13.84375 15.9375L12.1875 15.9375C12.148438 15.9375 12.125 15.925781 12.09375 15.90625 Z M 15.15625 14.15625L17.84375 14.15625L17.84375 15.9375L15.15625 15.9375 Z M 19.15625 14.15625L21 14.15625L20.15625 15.9375L19.15625 15.9375 Z M 14 22.1875C13 22.1875 12.1875 23 12.1875 24C12.1875 25 13 25.8125 14 25.8125C15 25.8125 15.8125 25 15.8125 24C15.8125 23 15 22.1875 14 22.1875 Z M 20 22.1875C19 22.1875 18.1875 23 18.1875 24C18.1875 25 19 25.8125 20 25.8125C21 25.8125 21.8125 25 21.8125 24C21.8125 23 21 22.1875 20 22.1875Z" fill="#5B5B5B" />
</svg>